<?xml version="1.0" encoding="utf-8"?>
<!-- Generator: Adobe Illustrator 15.0.0, SVG Export Plug-In . SVG Version: 6.00 Build 0)  -->
<!DOCTYPE svg PUBLIC "-//W3C//DTD SVG 1.1//EN" "http://www.w3.org/Graphics/SVG/1.1/DTD/svg11.dtd">
<svg version="1.1" xmlns="http://www.w3.org/2000/svg" xmlns:xlink="http://www.w3.org/1999/xlink" x="0px" y="0px" width="72px"
	 height="72px" viewBox="0 0 72 72" enable-background="new 0 0 72 72" xml:space="preserve">


	<path id="Disqus" fill="#46AB20" d="M49.795,49.675c-3.871,0-7.561-0.568-10.945-1.589l-12.688,6.392l4.893-9.879
		C24.516,40.527,20.35,34.373,20.35,27.483c0-7.692,5.193-14.47,13.08-18.451C19.707,10.325,8.971,21.877,8.971,35.938
		c0,14.927,12.102,27.029,27.029,27.029c10.381,0,19.395-5.853,23.924-14.439C56.297,49.189,52.332,49.675,49.795,49.675
		M49.932,12.773c-0.066,0.012-0.113,0.02-0.137,0.02c-10.768,0-19.492,6.576-19.492,14.69
		c0,8.111,8.725,14.69,19.492,14.69c5.059,0,9.664-1.457,13.127-3.84c0.07-0.79,0.107-1.587,0.107-2.396
		C63.029,26.108,57.779,17.502,49.932,12.773z"/>
		

	<path id="Elephant" fill="#75AF05" d="M43.115,34.964c-0.232-0.479-0.701-0.87-1.438-0.89L41.6,34.072c-0.635-0.002-1.082,0.289-1.348,0.684
		c-0.268,0.393-0.379,0.873-0.432,1.295l-0.031,0.25l0.25-0.041c0.289-0.047,0.598-0.072,0.916-0.072
		c0.07,0,0.143,0.002,0.213,0.004c0.746,0.025,1.426,0.184,1.969,0.426l0.268,0.119l-0.002-0.291
		C43.398,36,43.354,35.441,43.115,34.964M36,8.748c-15.052,0-27.252,12.203-27.252,27.254s12.2,27.25,27.252,27.25
		c15.05,0,27.251-12.199,27.251-27.25S51.051,8.748,36,8.748z M27.884,23.27c-0.068,0.272-0.107,0.566-0.107,0.883v0.008
		c0,0.342,0.01,1.118,0.018,1.811c0.004,0.346,0.008,0.671,0.012,0.91c0.002,0.119,0.002,0.216,0.004,0.284l0.002,0.079v0.02v0.006
		l-0.106,0.104h-2.835h-0.002c-0.479,0-0.904,0.061-1.287,0.162L27.884,23.27z M47.373,39.898c-0.395,4.271-1.047,6.812-1.311,7.631
		c-0.678,2.107-1.303,3.146-2.113,3.658c-0.807,0.52-1.889,0.557-3.543,0.555c-2.102,0.004-3.452-0.166-4.231-0.701
		c-0.391-0.268-0.655-0.623-0.832-1.125c-0.178-0.502-0.259-1.152-0.259-1.984c0.002-1.625,0.341-2.486,0.913-2.953
		c0.574-0.471,1.467-0.59,2.647-0.588c0.301,0,0.621,0.008,0.957,0.018c-0.016,0.059-0.047,0.158-0.086,0.279
		c-0.053,0.178-0.111,0.408-0.111,0.678c0,0.229,0.025,0.416,0.051,0.562c0.021,0.121,0.037,0.207,0.041,0.258h-0.01
		c-0.146,0-0.305-0.004-0.467-0.004c-0.387,0.004-0.799,0.018-1.143,0.182c-0.352,0.162-0.605,0.525-0.598,1.061
		c0.002,0.354,0.039,0.635,0.137,0.865c0.143,0.352,0.443,0.555,0.814,0.635c0.375,0.086,0.84,0.088,1.436,0.09
		c0.104,0,0.211,0,0.324,0c1.129-0.004,1.834-0.057,2.307-0.441c0.23-0.193,0.375-0.467,0.455-0.805
		c0.082-0.34,0.107-0.754,0.107-1.271c-0.002-1.705-0.234-2.711-0.674-3.338c-0.443-0.631-1.088-0.814-1.76-0.891
		c-1.445-0.17-2.879-0.389-3.531-0.621c-0.697-0.25-1.063-0.783-1.271-1.389c-0.203-0.605-0.229-1.27-0.229-1.707
		c0-0.123,0.002-0.23,0.002-0.314l-0.081-0.191l-0.175-0.068l-0.174,0.066c-0.053,0.047-0.086,0.123-0.084,0.193
		c0,0.918-0.065,2.17-0.531,3.584c-0.141,0.393-0.243,0.662-0.252,0.684c-0.137,0.283-0.283,0.443-0.446,0.539
		c-0.163,0.098-0.358,0.137-0.604,0.137c-0.428,0.002-0.993-0.127-1.686-0.217c-1.447-0.182-4.583-0.84-5.916-1.41
		c-0.58-0.279-0.726-0.475-1.043-1.115c-0.386-0.789-0.806-2.58-1.129-4.248c-0.325-1.666-0.564-3.229-0.616-3.619
		c-0.063-0.502-0.095-0.882-0.112-1.137c-0.016-0.254-0.018-0.377-0.018-0.377v-0.028c0-0.618,0.072-1.188,0.405-1.635
		c0.175-0.232,0.396-0.426,0.721-0.573c0.325-0.148,0.759-0.245,1.343-0.245h2.838c0.723-0.002,1.305-0.589,1.306-1.306
		c0-0.012-0.01-0.624-0.018-1.316c-0.008-0.69-0.018-1.467-0.018-1.793c0.003-0.551,0.138-0.922,0.343-1.217
		c0.299-0.434,0.875-0.738,1.398-0.883c0.278-0.08,0.997-0.164,1.841-0.164c1.03,0,2.263,0.123,3.185,0.496
		c0.58,0.228,1.143,0.949,1.25,1.719l0.025,0.166l0.166-0.006c0.348-0.01,0.77-0.02,1.234-0.02c0.896,0,1.943,0.033,2.875,0.143
		c1.773,0.209,3.191,0.473,3.857,0.715c0.596,0.22,1.254,0.75,1.471,1.891c0.307,1.643,0.688,7.334,0.688,10.857
		C47.441,38.686,47.42,39.393,47.373,39.898z"/>

	<path id="GoogleVoice" fill="#0071D4" d="M42.375,41.24c-0.635-1.148-1.887-2.592-3.054-2.908c1.41,0.768,2.413,2.131,3.017,3.635
		c0.086,0.205,0.11,0.504,0.33,0.654c0.289-0.152,0.061-0.508,0-0.691C42.589,41.691,42.488,41.439,42.375,41.24
		M34.233,32.298c0.243-0.456-0.077-0.997-0.29-1.381c-0.686-1.239-1.81-2.476-3.09-2.979
		c0.005,0.044,0.01,0.086,0.075,0.072c1.349,0.82,2.372,2.131,2.979,3.635C33.988,31.846,33.986,32.179,34.233,32.298
		M42.716,23.77c-1.864-0.767-3.997-1.309-6.541-1.309c-0.281,0-0.567,0.006-0.858,0.02
		c-4.354,0.207-7.724,1.736-10.222,3.861c-2.437,2.075-4.545,5.33-4.543,9.324c0,1.951,0.562,3.549,1.159,4.957
		c0.415,0.982,1.051,2.055,1.695,2.895c0.088,0.117,0.244,0.285,0.386,0.463c0.137,0.186,0.283,0.359,0.311,0.637l0.001,0.004
		l0.001,0.047c-0.004,0.23-0.085,0.424-0.166,0.611c-0.086,0.188-0.18,0.363-0.242,0.5c-0.38,0.818-0.884,1.736-1.044,2.512
		c0.69-0.176,1.19-0.439,1.902-0.764c0.228-0.104,0.644-0.33,1.087-0.531c0.45-0.199,0.919-0.385,1.358-0.391l0.128,0.008
		c0.308,0.041,0.561,0.215,0.832,0.389c0.263,0.176,0.522,0.367,0.68,0.451c0.475,0.26,1.026,0.484,1.485,0.658
		c1.479,0.564,3.429,0.826,5.403,0.824c2.138,0.002,4.306-0.303,5.94-0.828c4.323-1.389,7.635-4.088,9.242-8.07
		c0.52-1.287,0.789-2.83,0.789-4.356c0-1.044-0.126-2.08-0.379-3.021c-0.599-2.236-1.799-4.069-3.177-5.445
		C46.529,25.799,44.756,24.609,42.716,23.77z M41.721,43.385c-0.827,0.33-1.626,0.773-2.435,0.762
		c-0.697-0.012-1.498-0.479-2.145-0.801c-3.195-1.58-5.729-4.227-7.377-7.305c-0.311-0.58-0.613-1.32-0.837-2.106
		c-0.212-0.755-0.425-1.705-0.399-2.509c0.015-0.442,0.24-0.939,0.364-1.236c0.145-0.352,0.316-0.699,0.508-1.053
		c0.266-0.483,0.827-1.565,1.563-1.709c0.951-0.186,1.832,0.597,2.398,1.163c0.561,0.561,1.078,1.185,1.382,1.745
		c0.224,0.416,0.425,0.884,0.29,1.381c-0.143,0.529-1.04,0.992-1.378,1.162c-0.4,0.197-1.521,0.369-1.639,0.873
		c-0.138,0.588,0.703,1.323,1.018,1.709c0.856,1.039,1.688,1.945,2.617,2.943c0.279,0.301,1.044,1.309,1.455,1.309
		c0.375,0,0.985-0.805,1.233-1.055c0.296-0.293,0.783-1.01,1.238-1.055c0.724-0.07,1.612,0.814,2.07,1.273
		c0.598,0.598,1.123,1.182,1.453,1.854c0.161,0.326,0.416,0.875,0.365,1.346C43.385,42.793,42.451,43.092,41.721,43.385
		M36,8.979C21.076,8.979,8.979,21.076,8.979,36S21.076,63.021,36,63.021S63.021,50.924,63.021,36
		S50.924,8.979,36,8.979z M48.027,46.352c-2.832,2.439-6.416,3.959-11.226,4.264h-0.009h-0.01c-0.55,0-1.101,0-1.651,0H35.13h-0.003
		c-3.246-0.055-6.091-0.805-8.192-2.209c-1.277,0.459-2.472,1.105-3.98,1.561c-0.291,0.086-0.693,0.207-1.092,0.209
		c-0.242,0-0.504-0.045-0.722-0.227c-0.266-0.227-0.342-0.559-0.339-0.863c0.006-0.805,0.468-1.754,0.637-2.16
		c0.354-0.801,0.964-1.672,0.947-2.33v-0.002l-0.002-0.012l-0.018-0.053l-0.084-0.176c-0.078-0.139-0.191-0.309-0.314-0.48
		c-0.248-0.346-0.529-0.695-0.679-0.936c-1.209-1.971-2.148-4.186-2.455-6.854l-0.002-0.02v-0.018c0-0.421,0-0.846,0-1.268v-0.012
		l0.001-0.012c0.158-2.142,0.847-4.221,1.819-5.848c2.816-4.711,7.869-7.445,14.541-7.976l0.01-0.001h0.014c0.622,0,1.242,0,1.862,0
		h0.011h0.011c4.755,0.342,8.43,1.8,11.225,4.266c2.767,2.429,4.85,5.705,4.843,10.723C53.167,40.605,50.57,44.162,48.027,46.352z"/>

	<path id="XK" fill="#006062" d="M36,9.037c-14.891,0-26.963,12.071-26.963,26.962c0,14.892,12.072,26.964,26.963,26.964
		s26.963-12.072,26.963-26.964C62.963,21.108,50.891,9.037,36,9.037z M21.904,42.602l4.855-8.03l-3.642-6.442h6.161l3.643,6.442
		l-4.855,8.03H21.904z M44.874,51.1h-6.536l-6.257-11.02l9.71-17.087h6.537L38.617,40.08L44.874,51.1z"/>

	<path id="Fruit" fill="#B01400" d="M36,8.953C21.062,8.953,8.953,21.062,8.953,36S21.062,63.047,36,63.047S63.047,50.938,63.047,36
		S50.938,8.953,36,8.953z M23.99,42.152c-0.344-1.297-0.27-4.09,0.096-5.643c0.113-0.929,0.9-1.402,1.461-1.272l6.787,2.733
		c1.58,0.475,1.582,2.564,0.037,3.014l-6.803,2.104C24.973,43.297,24.203,43.033,23.99,42.152z M36.191,44.711l-0.004,7.357
		c-0.1,0.568-0.811,1.045-1.709,0.791c-1.574-0.268-4.178-1.277-5.242-2.096c-0.73-0.537-0.703-1.281-0.279-1.75l4.635-5.514
		C34.711,42.176,36.363,42.777,36.191,44.711z M33.748,34.897c-2.41-3.804-4.824-7.497-7.088-11.337
		c-0.424-0.771,0.158-1.542,1.305-2.019c2.012-0.732,3.691-1.193,5.703-1.531c1.385-0.056,1.783,0.541,1.789,1.272
		c0.379,4.221,0.613,8.661,0.844,12.881C36.355,35.827,34.686,36.318,33.748,34.897z M39.047,35.924l4.334-5.944
		c0.414-0.4,1.27-0.365,1.848,0.368c1.115,1.143,2.625,3.492,3.002,4.781c0.273,0.862-0.188,1.449-0.805,1.58l-6.955,1.762
		C38.918,38.887,37.939,37.148,39.047,35.924z M48.277,45.535c-0.523,1.361-1.979,3.352-3.223,4.391
		c-0.643,0.682-1.607,0.641-1.984,0.209l-3.801-6.303c-0.996-1.316,0.092-2.93,1.604-2.381l6.814,2.33
		C48.293,43.967,48.625,44.699,48.277,45.535z"/>


	<path id="Something" fill="#2E9AC1" d="M36,9.054C21.118,9.054,9.054,21.118,9.054,36S21.118,62.946,36,62.946S62.946,50.882,62.946,36
		S50.882,9.054,36,9.054z M32.642,50.736c-3.916-0.287-8.445-3.329-8.445-6.47c0-1.03,0.031-3.039,2.606-3.924
		c1.512-0.521,4.961,0.47,4.145,4.866c-0.152,0.82,7.412,2.041,8.197-1.884c0.817-4.093-7.852-6.062-7.852-6.062
		c-0.465-0.156-6.029-1.341-6.029-7.646c0-8.276,9.354-8.648,11.788-8.349c7.262,0.895,10.207,8.631,4.758,9.834
		c-3.122,0.689-4.73-2.229-4.025-4.476c0.255-0.81-2.565-1.045-3.962-0.61c-1.263,0.391-2.808,1.764-2.808,3.342
		c0,2.033,4.832,3.604,4.832,3.604s3.849,1.426,4.881,2.103c0.809,0.529,3.986,2.546,4.264,6.342
		c-0.978,0.183-1.853,0.67-2.52,1.363c-0.855,0.888-1.381,2.113-1.38,3.457c-0.001,0.872,0.224,1.691,0.612,2.403
		C39.506,50.252,36.329,51.006,32.642,50.736z M45.835,49.863c-1.912,0-3.462-1.609-3.462-3.595c0-1.986,1.55-3.596,3.462-3.596
		s3.462,1.609,3.462,3.596C49.297,48.254,47.747,49.863,45.835,49.863z"/>

	<path id="Share" fill="#369636" d="M36,9.059c-14.881,0-26.941,12.062-26.941,26.94c0,14.88,12.061,26.942,26.941,26.942
		c14.879,0,26.941-12.062,26.941-26.942C62.941,21.12,50.879,9.059,36,9.059z M30.193,35.659c0,0.265-0.025,0.521-0.064,0.774
		l9.715,4.953c0.904-0.82,2.098-1.326,3.416-1.326c2.805,0,5.08,2.277,5.08,5.082c0,2.809-2.275,5.084-5.08,5.084
		c-2.809,0-5.084-2.275-5.084-5.084c0-0.092,0.01-0.18,0.014-0.271L28.129,39.74c-0.844,0.627-1.887,1.002-3.018,1.002
		c-2.809,0-5.084-2.275-5.084-5.083c0-2.807,2.275-5.083,5.084-5.083c1.258,0,2.404,0.459,3.293,1.216l9.795-4.994
		c-0.014-0.15-0.023-0.303-0.023-0.459c0-2.806,2.275-5.083,5.084-5.083c2.805,0,5.08,2.277,5.08,5.083
		c0,2.808-2.275,5.083-5.08,5.083c-1.252,0-2.396-0.454-3.281-1.205l-9.807,5.003C30.184,35.365,30.193,35.511,30.193,35.659z"/>


	<path id="Heart" fill="#C5136B" d="M36,9.023c-14.898,0-26.977,12.077-26.977,26.976c0,14.899,12.078,26.978,26.977,26.978
		s26.977-12.078,26.977-26.978C62.977,21.101,50.898,9.023,36,9.023z M44.08,41.957c-3.236,5.51-2.408,8.424-2.408,8.424
		s0.281,1.992-3.99,0.541c-4.277-1.457-8.869-4.346-8.869-4.346s-5.986-4.051-7.348-8.266c-1.363-4.21,0.121-8.582,2.75-10.677
		c2.635-2.087,6.275-0.786,6.18,0.794c-0.096,1.588-2.252,1.93-2.252,1.93l0.24,0.178c0.109,0.041,0.232,0.041,0.348,0.034
		c1.938-0.089,3.031-2.046,4.195-3.318c0.678-0.739,1.416-1.396,2.195-2.019c0.953-0.768,1.992-1.485,3.094-2.032
		c2.326-1.144,4.641-0.89,7.055-0.199c2.67,0.76,4.512,2.759,5.059,5.481c0.035,0.178,0.061,0.362,0.082,0.541
		C51.047,34.053,46.4,37.994,44.08,41.957z"/>


	<path id="Skype" fill="#19B7F1" d="M42.078,35.666c-0.67-0.442-1.482-0.814-2.432-1.122c-0.951-0.308-2.012-0.588-3.182-0.841
		c-0.932-0.219-1.602-0.385-2.004-0.498c-0.4-0.112-0.797-0.268-1.189-0.468c-0.389-0.198-0.693-0.432-0.91-0.703
		c-0.217-0.267-0.322-0.581-0.324-0.952c0.002-0.594,0.314-1.1,0.965-1.536c0.65-0.43,1.51-0.648,2.584-0.648
		c1.162-0.002,1.996,0.202,2.504,0.594c0.518,0.399,0.965,0.958,1.338,1.675c0.295,0.515,0.568,0.884,0.828,1.115
		c0.266,0.239,0.652,0.353,1.141,0.353c0.545,0.002,1.01-0.193,1.375-0.577c0.363-0.384,0.549-0.821,0.549-1.303
		c0-0.519-0.145-1.051-0.434-1.594c-0.287-0.542-0.742-1.06-1.361-1.549c-0.621-0.491-1.398-0.884-2.334-1.18
		c-0.938-0.294-2.043-0.442-3.32-0.442c-1.6,0-2.996,0.222-4.182,0.667c-1.189,0.445-2.102,1.085-2.732,1.919
		s-0.947,1.79-0.947,2.861c0,1.122,0.299,2.069,0.898,2.831c0.598,0.755,1.404,1.353,2.416,1.79c1.01,0.435,2.26,0.814,3.752,1.14
		c1.111,0.235,1.998,0.457,2.66,0.667c0.658,0.207,1.188,0.505,1.6,0.895c0.404,0.386,0.605,0.881,0.605,1.503
		c0,0.78-0.371,1.427-1.135,1.956c-0.764,0.527-1.76,0.793-2.994,0.793c-0.898,0-1.619-0.131-2.16-0.393
		c-0.547-0.262-0.971-0.595-1.27-0.995c-0.301-0.405-0.584-0.912-0.846-1.52c-0.219-0.523-0.486-0.921-0.803-1.193
		c-0.32-0.273-0.715-0.41-1.172-0.41c-0.559,0-1.031,0.174-1.398,0.524c-0.365,0.348-0.551,0.774-0.551,1.264
		c0,0.831,0.301,1.683,0.896,2.552s1.369,1.566,2.322,2.087c1.342,0.725,3.041,1.084,5.094,1.084c1.715,0,3.197-0.264,4.453-0.793
		c1.254-0.527,2.211-1.262,2.865-2.201c0.652-0.938,0.98-1.998,0.98-3.175c0-0.979-0.188-1.811-0.566-2.492
		C43.281,36.671,42.752,36.107,42.078,35.666
		M35.998,8.757C20.953,8.757,8.758,20.955,8.758,36c0,15.047,12.195,27.243,27.24,27.243
		c15.047,0,27.244-12.196,27.244-27.243C63.242,20.955,51.045,8.757,35.998,8.757z M43.221,52.628c-1.795,0-3.471-0.51-4.895-1.388
		c-0.783,0.123-1.588,0.188-2.406,0.188c-8.521,0-15.428-6.907-15.428-15.428c0-0.819,0.066-1.621,0.188-2.406
		c-0.879-1.424-1.387-3.1-1.387-4.896c0-5.149,4.174-9.324,9.324-9.324c1.795,0,3.473,0.509,4.895,1.389
		c0.785-0.123,1.588-0.189,2.408-0.189c8.52,0,15.428,6.907,15.428,15.428c0,0.819-0.066,1.623-0.189,2.408
		c0.879,1.422,1.389,3.098,1.389,4.895C52.547,48.452,48.373,52.628,43.221,52.628z"/>
	
	<path id="Bunny" fill="#FF9914" d="M40.039,49.553c-1.771,0.055-2.692,1.506-3.389,2.699c1.355,0.02,3.191,0.191,4.051-0.713
		C40.854,50.74,40.475,49.953,40.039,49.553
		M33.925,53.627c-0.792-0.281-1.76-0.34-2.56-0.611c-0.306,0.844-0.224,1.559-0.664,2.152
		c-1.767,2.389-6.485,1.344-6.203-2.436c0.17-2.273,3.566-4.096,5.454-5.232c1.003-0.604,2.391-1.318,3.58-1.998
		c1.163-0.67,2.523-1.584,2.79-2.523c0.286-1.023-0.191-2.631-0.523-3.35c-0.499,0.047-0.71,0.623-1.019,0.955
		c-0.977,1.049-2.114,2.086-3.337,3.107c-1.57,1.309-3.315,2.781-5.377,3.363c-2.589,0.729-4.741-0.32-5.618-2.715
		c-0.054-0.441-0.109-0.883-0.166-1.324c1.067-5.336,5.531-8.027,10.397-10.406c-1.934-2.119-5.774-5.436-6.229-10.089
		c-0.199-2.056,0.619-3.927,2.192-4.827c2.823-1.617,5.09,1.142,6.814,2.357c0.83-2.021,1.941-3.826,4.166-4.765
		c0.442-0.056,0.883-0.109,1.324-0.165c2.036,0.245,3.078,1.795,3.248,4.459c0.271,4.268-1.424,9.07-2.219,12.074
		c7.437,1.606,13.438,5.242,17.195,11.721c0.921,1.592,1.785,3.312,2.413,5.238c2.013-3.76,3.156-8.053,3.156-12.613
		C62.742,21.23,50.77,9.258,36,9.258S9.258,21.23,9.258,36c0,13.777,10.42,25.121,23.812,26.58
		C32.424,59.414,32.887,55.885,33.925,53.627
		M41.025,62.268c-0.855-4.988,1.947-10.24,7.307-10.957c3.579-0.479,6.368,0.668,8.196,1.826
		c0.637-0.762,1.232-1.561,1.783-2.393c-1.096-4.811-3.38-8.338-6.387-11.268c-3.017-2.938-7.171-5.226-12.035-6.051
		c-0.954-0.161-1.673-0.231-1.849-0.699c-0.117-0.316,0.172-1.227,0.384-1.912c1.021-3.314,1.909-5.867,2.103-9.682
		c0.106-2.113-0.332-5.204-2.586-4.127c-1.829,0.875-2.738,3.021-3.351,4.661c1.766,1.538,4.963,9.04,0.088,8.993
		c-3.49-0.032-2.643-6.586-1.923-8.764c-0.803-0.703-1.258-1.379-2.112-2.012c-0.592-0.438-1.537-1.348-3.008-0.867
		c-0.893,0.291-1.414,1.504-1.503,2.051c-0.134,0.83,0.042,1.781,0.203,2.459c0.715,2.977,3.402,6.024,5.185,7.528
		c0.629,0.531,2.119,0.925,2.089,1.81c-0.025,0.708-2.007,1.162-3.008,1.617c-1.353,0.616-2.305,1.25-2.992,1.719
		c-1.908,1.301-3.702,2.666-4.739,4.316c-0.434,0.691-1.088,1.908-0.854,3.109c0.28,1.441,1.599,2.223,3.336,1.859
		c1.828-0.379,3.921-2.059,5.746-3.719c0.868-0.789,1.45-1.256,2.407-2.266c0.678-0.715,1.57-2.32,2.408-2.268
		c0.848,0.053,1.756,2.338,1.948,3.172c0.572,2.48-0.248,4.096-1.235,5.018c-1.39,1.299-3.606,2.141-5.784,3.412
		c-1.389,0.812-4.681,2.619-4.638,4.305c0.051,1.943,2.663,2.027,3.198,0.742c0.353-0.848-0.471-2.24,0.178-2.713
		c0.653-0.48,1.967,0.178,2.521,0.303c1.079,0.248,1.974,0.457,2.549,0.512c1.252-1.396,2.492-4.152,5.07-4.152
		c2.239,0.002,3.613,3.629,1.987,5.135c-1.55,1.43-3.988,0.891-6.001,0.852c-1.312,2.014-1.585,5.754-0.843,8.896
		c0.378,0.018,0.755,0.027,1.135,0.027C37.718,62.742,39.397,62.578,41.025,62.268
		M55.341,54.467c-1.812-1.211-3.906-1.994-6.805-1.525c-4.395,0.711-6.554,5-5.909,8.973
		C47.556,60.656,51.936,58.031,55.341,54.467
		M35.394,26.432c-0.329-1.043-0.898-1.801-1.249-2.534c-0.012-0.062-0.029-0.119-0.115-0.089
		c-0.294,1.076-0.66,5.258,0.854,5.172C35.925,28.92,35.701,27.41,35.394,26.432z"/>

	<path id="Blogger" fill="#FF6600" d="M41.863,39.352h-9.865c-0.438,0-0.83,0.178-1.115,0.463c-0.287,0.287-0.463,0.68-0.465,1.117
		c0.002,0.438,0.178,0.83,0.465,1.117c0.285,0.285,0.678,0.463,1.115,0.463h9.865c0.438,0,0.832-0.178,1.119-0.463
		c0.283-0.287,0.461-0.68,0.461-1.117s-0.178-0.83-0.461-1.117C42.695,39.529,42.301,39.352,41.863,39.352z
		M32.062,32.259h5.158c0.383,0,0.729-0.154,0.98-0.406c0.252-0.251,0.406-0.597,0.406-0.979
		c0-0.766-0.621-1.387-1.387-1.387h-5.158c-0.383,0-0.729,0.154-0.979,0.406c-0.254,0.251-0.408,0.596-0.408,0.98
		c0,0.382,0.154,0.728,0.408,0.979C31.334,32.104,31.68,32.259,32.062,32.259
		M36,9.262c-14.768,0-26.738,11.972-26.738,26.737c0,14.769,11.971,26.739,26.738,26.739
		s26.738-11.971,26.738-26.739C62.738,21.233,50.768,9.262,36,9.262z M50.635,40.301c-0.004,3.689-2.256,7.275-5.662,8.762l0,0
		c-1.611,0.785-3.34,0.91-5.053,0.912c-0.859,0-1.717-0.033-2.559-0.033c-0.293,0-0.584,0.004-0.873,0.016h-0.01l-0.008-0.002
		c-0.305-0.01-0.613-0.016-0.926-0.016c-0.879,0-1.777,0.037-2.678,0.037c-1.77-0.002-3.553-0.137-5.201-0.986l0,0
		c-0.002,0-0.006-0.002-0.008-0.004l0,0c-3.096-1.438-5.186-4.721-5.211-8.123c-0.014-1.488-0.018-2.975-0.018-4.463
		c0-1.755,0.006-3.507,0.012-5.261c-0.002-0.059-0.002-0.119-0.002-0.179c0-2.147,0.859-4.19,2.232-5.797
		c1.375-1.606,3.266-2.78,5.35-3.188l0.006-0.002h0.006c0.975-0.135,1.953-0.165,2.926-0.165c0.832,0,1.662,0.022,2.484,0.022
		c0.223,0,0.445-0.002,0.668-0.006l0,0c0.094-0.003,0.188-0.004,0.281-0.004c1.916,0,3.795,0.65,5.346,1.759
		c1.545,1.105,2.764,2.668,3.352,4.503c0.244,0.641,0.32,1.309,0.416,1.949c0.094,0.625,0.203,1.22,0.471,1.746
		c0.193,0.164,0.418,0.273,0.674,0.347c0.27,0.077,0.568,0.114,0.883,0.14c0.627,0.055,1.303,0.059,1.898,0.33
		c0.396,0.18,0.746,0.497,0.969,0.998l0.01,0.021l0.004,0.022c0.232,1.065,0.291,2.147,0.291,3.227c0,1.082-0.061,2.162-0.074,3.223
		C50.633,40.158,50.635,40.229,50.635,40.301z"/>

	<path id="CC" fill="#73B129" d="M36,9.283C21.244,9.283,9.283,21.244,9.283,36S21.244,62.717,36,62.717S62.717,50.756,62.717,36
		S50.756,9.283,36,9.283z M49.922,49.682c-3.848,3.795-8.818,5.826-13.947,5.826c-5.133,0-9.996-2.031-13.736-5.771
		C18.496,45.994,16.52,41.184,16.52,36c0-5.131,2.031-10.047,5.771-13.842c3.635-3.688,8.338-5.666,13.684-5.666
		c5.344,0,10.154,1.979,13.895,5.719c3.688,3.688,5.613,8.498,5.613,13.789C55.482,41.344,53.557,46.102,49.922,49.682
		M47.357,24.723c-3.047-3.045-6.947-4.703-11.332-4.703c-4.381,0-8.23,1.604-11.223,4.65
		c-3.047,3.1-4.756,7.109-4.756,11.33c0,4.17,1.709,8.178,4.756,11.225s7.002,4.703,11.223,4.703c4.17,0,8.232-1.656,11.387-4.756
		c2.99-2.941,4.541-6.789,4.541-11.172C51.953,31.672,50.35,27.717,47.357,24.723z M30.719,42.051c-3.436,0-5.812-2.182-5.812-6.051
		c0-3.803,2.527-6.051,5.703-6.051c2.184,0,4.064,0.801,5.166,2.811l-2.594,1.361c-0.604-1.297-1.641-1.578-2.16-1.578
		c-1.924,0-2.615,1.49-2.615,3.457s0.82,3.457,2.615,3.457c1.037,0,1.859-0.389,2.398-1.684l2.42,1.23
		C34.803,40.84,32.924,42.051,30.719,42.051z M41.973,42.051c-3.436,0-5.812-2.182-5.812-6.051c0-3.803,2.527-6.051,5.705-6.051
		c2.182,0,4.061,0.801,5.164,2.811l-2.594,1.361c-0.605-1.297-1.643-1.578-2.162-1.578c-1.922,0-2.613,1.49-2.613,3.457
		s0.822,3.457,2.613,3.457c1.039,0,1.861-0.389,2.4-1.684l2.42,1.23C46.057,40.84,44.178,42.051,41.973,42.051z"/>
	
</svg>
