<?xml version="1.0" encoding="utf-8"?>
<!-- Generator: Adobe Illustrator 15.0.0, SVG Export Plug-In . SVG Version: 6.00 Build 0)  -->
<!DOCTYPE svg PUBLIC "-//W3C//DTD SVG 1.1//EN" "http://www.w3.org/Graphics/SVG/1.1/DTD/svg11.dtd">
<svg version="1.1" xmlns="http://www.w3.org/2000/svg" xmlns:xlink="http://www.w3.org/1999/xlink" x="0px" y="0px" width="72px"
	 height="72px" viewBox="0 0 72 72" enable-background="new 0 0 72 72" xml:space="preserve">

	<path id="Elephant" fill="#75AF05" d="M43.115,34.964c-0.232-0.479-0.701-0.87-1.438-0.89L41.6,34.072c-0.635-0.002-1.082,0.289-1.348,0.684
		c-0.268,0.393-0.379,0.873-0.432,1.295l-0.031,0.25l0.25-0.041c0.289-0.047,0.598-0.072,0.916-0.072
		c0.07,0,0.143,0.002,0.213,0.004c0.746,0.025,1.426,0.184,1.969,0.426l0.268,0.119l-0.002-0.291
		C43.398,36,43.354,35.441,43.115,34.964M36,8.748c-15.052,0-27.252,12.203-27.252,27.254s12.2,27.25,27.252,27.25
		c15.05,0,27.251-12.199,27.251-27.25S51.051,8.748,36,8.748z M27.884,23.27c-0.068,0.272-0.107,0.566-0.107,0.883v0.008
		c0,0.342,0.01,1.118,0.018,1.811c0.004,0.346,0.008,0.671,0.012,0.91c0.002,0.119,0.002,0.216,0.004,0.284l0.002,0.079v0.02v0.006
		l-0.106,0.104h-2.835h-0.002c-0.479,0-0.904,0.061-1.287,0.162L27.884,23.27z M47.373,39.898c-0.395,4.271-1.047,6.812-1.311,7.631
		c-0.678,2.107-1.303,3.146-2.113,3.658c-0.807,0.52-1.889,0.557-3.543,0.555c-2.102,0.004-3.452-0.166-4.231-0.701
		c-0.391-0.268-0.655-0.623-0.832-1.125c-0.178-0.502-0.259-1.152-0.259-1.984c0.002-1.625,0.341-2.486,0.913-2.953
		c0.574-0.471,1.467-0.59,2.647-0.588c0.301,0,0.621,0.008,0.957,0.018c-0.016,0.059-0.047,0.158-0.086,0.279
		c-0.053,0.178-0.111,0.408-0.111,0.678c0,0.229,0.025,0.416,0.051,0.562c0.021,0.121,0.037,0.207,0.041,0.258h-0.01
		c-0.146,0-0.305-0.004-0.467-0.004c-0.387,0.004-0.799,0.018-1.143,0.182c-0.352,0.162-0.605,0.525-0.598,1.061
		c0.002,0.354,0.039,0.635,0.137,0.865c0.143,0.352,0.443,0.555,0.814,0.635c0.375,0.086,0.84,0.088,1.436,0.09
		c0.104,0,0.211,0,0.324,0c1.129-0.004,1.834-0.057,2.307-0.441c0.23-0.193,0.375-0.467,0.455-0.805
		c0.082-0.34,0.107-0.754,0.107-1.271c-0.002-1.705-0.234-2.711-0.674-3.338c-0.443-0.631-1.088-0.814-1.76-0.891
		c-1.445-0.17-2.879-0.389-3.531-0.621c-0.697-0.25-1.063-0.783-1.271-1.389c-0.203-0.605-0.229-1.27-0.229-1.707
		c0-0.123,0.002-0.23,0.002-0.314l-0.081-0.191l-0.175-0.068l-0.174,0.066c-0.053,0.047-0.086,0.123-0.084,0.193
		c0,0.918-0.065,2.17-0.531,3.584c-0.141,0.393-0.243,0.662-0.252,0.684c-0.137,0.283-0.283,0.443-0.446,0.539
		c-0.163,0.098-0.358,0.137-0.604,0.137c-0.428,0.002-0.993-0.127-1.686-0.217c-1.447-0.182-4.583-0.84-5.916-1.41
		c-0.58-0.279-0.726-0.475-1.043-1.115c-0.386-0.789-0.806-2.58-1.129-4.248c-0.325-1.666-0.564-3.229-0.616-3.619
		c-0.063-0.502-0.095-0.882-0.112-1.137c-0.016-0.254-0.018-0.377-0.018-0.377v-0.028c0-0.618,0.072-1.188,0.405-1.635
		c0.175-0.232,0.396-0.426,0.721-0.573c0.325-0.148,0.759-0.245,1.343-0.245h2.838c0.723-0.002,1.305-0.589,1.306-1.306
		c0-0.012-0.01-0.624-0.018-1.316c-0.008-0.69-0.018-1.467-0.018-1.793c0.003-0.551,0.138-0.922,0.343-1.217
		c0.299-0.434,0.875-0.738,1.398-0.883c0.278-0.08,0.997-0.164,1.841-0.164c1.03,0,2.263,0.123,3.185,0.496
		c0.58,0.228,1.143,0.949,1.25,1.719l0.025,0.166l0.166-0.006c0.348-0.01,0.77-0.02,1.234-0.02c0.896,0,1.943,0.033,2.875,0.143
		c1.773,0.209,3.191,0.473,3.857,0.715c0.596,0.22,1.254,0.75,1.471,1.891c0.307,1.643,0.688,7.334,0.688,10.857
		C47.441,38.686,47.42,39.393,47.373,39.898z"/>

</svg>
