<?xml version="1.0" encoding="utf-8"?>
<!-- Generator: Adobe Illustrator 15.0.0, SVG Export Plug-In  -->
<!DOCTYPE svg PUBLIC "-//W3C//DTD SVG 1.1//EN" "http://www.w3.org/Graphics/SVG/1.1/DTD/svg11.dtd" [
	<!ENTITY ns_flows "http://ns.adobe.com/Flows/1.0/">
]>
<svg version="1.1"
	 xmlns="http://www.w3.org/2000/svg" xmlns:xlink="http://www.w3.org/1999/xlink" xmlns:a="http://ns.adobe.com/AdobeSVGViewerExtensions/3.0/"
	 x="0px" y="0px" width="144px" height="144px" viewBox="-45.034 -45.229 144 144"
	 overflow="visible" enable-background="new -45.034 -45.229 144 144" xml:space="preserve">
<defs>
</defs>
<path fill="#6E952F" d="M27.073,0C12.121,0,0,12.121,0,27.073s12.121,27.073,27.073,27.073s27.073-12.121,27.073-27.073
	S42.025,0,27.073,0z M29.331,44.021c-3.341,0-4.708-1.495-9.577-10.692c-0.922,0.829-2.386,1.593-3.277,1.593
	c-0.795,0-1.305-0.605-1.305-2.769c0-2.132,1.273-5.568,4.231-5.568c0.924,0,1.56,0.318,2.578,1.177
	c2.672-2.1,6.396-5.917,7.827-7.985c-2.864-0.859-5.186-1.528-6.681-1.528c-0.574,0-1.464,0.255-2.547,0.892
	c-0.827-0.255-1.369-0.986-1.369-2.291c0-2.291,1.847-4.264,4.105-4.264c2.418,0,4.613,0.604,9.291,2.387
	c0.636-0.987,1.113-1.559,1.719-1.559c1.272,0,2.259,1.527,2.259,2.672c0,1.338-0.986,2.8-3.499,4.454
	c-2.929,4.168-5.188,6.364-9.038,9.673c5.06,7.445,5.95,8.146,7.542,8.146c1.241,0,2.608-0.446,4.135-1.273
	c0.447,0.223,0.892,0.954,0.892,1.781C36.617,41.316,32.959,44.021,29.331,44.021z"/>
</svg>
